<mxfile host="app.diagrams.net" modified="2024-05-22T09:53:25.968Z" agent="Mozilla/5.0 (Windows NT 10.0; Win64; x64) AppleWebKit/537.36 (KHTML, like Gecko) Chrome/124.0.0.0 Safari/537.36" version="24.4.4" etag="M3GvKBwWR8py8NGjjWr2" type="github">
  <diagram name="第 1 页" id="WcHLXoRM0-fdpDgsh4Mc">
    <mxGraphModel>
      <root>
        <mxCell id="0" />
        <mxCell id="1" parent="0" />
      </root>
    </mxGraphModel>
  </diagram>
</mxfile>
